<?xml version="1.0" standalone="no"?>
<!DOCTYPE svg PUBLIC "-//W3C//DTD SVG 20010904//EN"
 "http://www.w3.org/TR/2001/REC-SVG-20010904/DTD/svg10.dtd">
<svg version="1.0" xmlns="http://www.w3.org/2000/svg"
 width="260.000000pt" height="260.000000pt" viewBox="0 0 260.000000 260.000000"
 preserveAspectRatio="xMidYMid meet">
<metadata>
Created by potrace 1.11, written by Peter Selinger 2001-2013
</metadata>
<g transform="translate(0.000000,260.000000) scale(0.100000,-0.100000)"
fill="#000000" stroke="none">
<path d="M970 1425 l0 -116 -30 16 c-103 53 -209 -43 -181 -166 19 -85 114
-135 178 -94 18 12 28 14 31 7 2 -7 17 -12 33 -12 l29 0 0 240 0 240 -30 0
-30 0 0 -115z m-20 -165 c28 -28 27 -96 -2 -127 -30 -33 -80 -31 -107 3 -45
57 -12 144 55 144 21 0 42 -8 54 -20z"/>
<path d="M154 1321 c-17 -10 -38 -34 -47 -54 -59 -124 55 -260 168 -201 19 10
31 11 33 5 2 -6 17 -11 33 -11 l29 0 0 140 0 140 -30 0 c-20 0 -30 -5 -30 -15
0 -19 -9 -19 -34 0 -27 21 -85 19 -122 -4z m135 -67 c63 -80 -33 -191 -106
-122 -31 29 -32 99 -3 128 30 30 83 27 109 -6z"/>
<path d="M457 1333 c-11 -10 -8 -189 3 -217 22 -59 116 -84 177 -46 41 25 55
74 51 183 l-3 82 -30 0 -30 0 -3 -99 c-1 -55 -8 -106 -14 -113 -15 -18 -63
-16 -79 3 -8 10 -15 53 -17 115 -4 94 -5 99 -26 99 -13 0 -26 -3 -29 -7z"/>
<path d="M1171 1327 c-92 -47 -91 -216 2 -260 61 -29 113 -21 165 26 28 26 28
39 1 55 -19 12 -24 11 -48 -12 -33 -31 -73 -34 -101 -6 -41 41 -28 49 78 52
l97 3 -3 35 c-8 76 -55 120 -129 120 -21 0 -49 -6 -62 -13z m111 -64 c29 -26
21 -33 -42 -33 -43 0 -60 4 -60 13 0 37 68 51 102 20z"/>
<path d="M1488 1324 c-33 -18 -68 -81 -68 -124 0 -104 98 -177 181 -136 21 11
35 13 37 6 2 -5 17 -10 33 -10 l30 0 -3 138 -3 137 -27 3 c-20 2 -28 -1 -28
-12 0 -20 -9 -20 -34 -1 -25 19 -83 19 -118 -1z m131 -70 c64 -81 -32 -192
-106 -122 -31 29 -32 99 -3 128 30 30 83 27 109 -6z"/>
<path d="M1787 1334 c-14 -14 -8 -194 8 -224 45 -87 188 -75 215 17 6 21 10
76 8 123 l-3 85 -30 0 -30 0 -3 -99 c-1 -55 -8 -106 -14 -113 -14 -17 -62 -17
-76 0 -6 7 -13 58 -14 113 -3 98 -3 99 -28 102 -14 2 -29 0 -33 -4z"/>
<path d="M2090 1333 c0 -4 21 -33 46 -65 51 -66 53 -52 -23 -144 -24 -28 -43
-54 -43 -58 0 -3 15 -6 34 -6 29 0 41 8 76 50 l42 50 40 -50 c34 -42 45 -50
74 -50 31 0 45 12 26 24 -4 3 -29 32 -55 64 l-47 60 51 63 51 64 -33 3 c-29 3
-39 -2 -72 -39 -41 -46 -37 -47 -83 19 -12 15 -26 22 -50 22 -19 0 -34 -3 -34
-7z"/>
</g>
</svg>
